<svg width="32" height="32" xmlns="http://www.w3.org/2000/svg" style="vector-effect: non-scaling-stroke;" stroke="null">
 <title style="vector-effect: non-scaling-stroke;" stroke="null">favicon</title>

 <g stroke="null">
  <title stroke="null">background</title>
  <rect stroke="null" fill="none" id="canvas_background" height="602" width="802" y="-1" x="-1"/>
 </g>
 <g stroke="null">
  <title stroke="null">Layer 1</title>
  <path stroke="null" id="svg_1" d="m-0.0625,32.87466l0,0.75032l32,0l0,-0.75032l-32,0z" fill="#fff"/>
  <path stroke="null" id="svg_2" d="m11.688,3.813l0,0.188l-0.313,0l0,0.188c-0.559,0.079 -1.229,0.787 -1.375,1.313l0.188,-0.125l0.188,0.313c0.011,-0.899 1.184,-1.343 1.875,-1.676c1.587,-0.766 3.5,-0.918 5.25,-0.688c0.753,0.099 1.499,0.441 2.25,0.489l0,-0.063l-0.125,-0.063c0.195,-0.147 -0.253,-0.229 -0.375,-0.259c-0.475,-0.114 -1.015,-0.303 -1.5,-0.304c-1.229,-0.003 -2.386,-0.195 -3.625,0.014c-0.525,0.089 -1.117,0.201 -1.62,0.382c-0.296,0.107 -0.482,0.285 -0.818,0.292l0,-0.001z" fill="#fcc733"/>
  <path stroke="null" id="svg_3" d="m18.563,3.125l0,0.063l1.625,0.527l0.938,0.41l0,-0.063c-0.805,-0.446 -1.667,-0.735 -2.563,-0.938l0,0.001z" fill="#faf0d4"/>
  <path stroke="null" id="svg_4" d="m10.688,5.375l4.065,-0.929l5.56,-0.071c-0.341,-0.609 -1.291,-0.521 -1.857,-0.742c-1.042,-0.407 -2.298,-0.276 -3.393,-0.201c-0.97,0.066 -1.934,0.104 -2.813,0.549c-0.603,0.305 -1.376,0.682 -1.563,1.395l0.001,-0.001z" fill="#fff3d0"/>
  <path stroke="null" id="svg_5" d="m19.625,3.688l0,0.063c0.715,0.506 3.53,1.4 2.143,2.51c-0.145,0.116 -0.285,0.155 -0.45,0.229c-0.242,0.109 -0.433,0.247 -0.693,0.324l0,0.063l0.25,0l0.25,0.25l0.063,-0.313l0.063,0l-0.063,0.25l0.25,0c0,0.311 -0.04,0.572 0.25,0.75l0,0.063l-0.438,0.125l0,0.063c0.43,0 2.515,-0.613 2,0.375l0,0.063c0.289,0.502 0.436,1.484 0.438,2.063l0.063,0c0.383,-1.297 0.029,-3.182 -0.666,-4.313c-0.373,-0.607 -1.04,-1.133 -1.334,-1.75l-0.563,-0.125c-0.174,-0.53 -1.08,-0.687 -1.563,-0.688l0,-0.002z" fill="#f1b824"/>
  <path stroke="null" id="svg_6" d="m11,4.313l0.375,-0.125l0,-0.188c0.187,-0.004 0.272,0.003 0.313,-0.188l-0.688,0.5l0,0.001z" fill="#faeecd"/>
  <path stroke="null" id="svg_7" d="m19.438,3.813l0,0.063l0.875,0.5l-5.619,0.071l-0.631,0.239l-1.687,0.255l-1.688,0.435l0.313,-0.563c-0.693,0.117 -0.839,1.091 -0.057,1.225c0.258,0.044 0.459,-0.141 0.688,-0.217c0.432,-0.143 0.979,-0.256 1.432,-0.258l0,-0.188c0.521,-0.004 0.992,-0.185 1.5,-0.242c0.898,-0.101 1.847,-0.11 2.75,-0.132c1.242,-0.03 2.763,0.261 3.938,-0.188l0,-0.125c-0.576,-0.335 -1.108,-0.837 -1.813,-0.875l-0.001,0z" fill="#ffedb9"/>
  <path stroke="null" id="svg_8" d="m10.688,4.5l-0.188,0.188l0,0.063l0.313,-0.25l-0.125,0l0,-0.001z" fill="#fad265"/>
  <path stroke="null" id="svg_9" d="m21.25,4.688c-0.494,0.519 -1.595,0.313 -2.25,0.313c-1.487,0 -3.022,-0.033 -4.5,0.133c-0.485,0.054 -0.941,0.232 -1.438,0.242l0,0.188l-1.432,0.241l-0.628,0.221l-0.502,-0.211l0,0.063c0.629,0.515 1.056,0.187 1.75,-0.027c0.433,-0.133 0.928,-0.173 1.375,-0.257c2.58,-0.486 5.365,0.158 7.875,-0.466c-0.008,-0.231 -0.02,-0.361 -0.25,-0.438l0,-0.002z" fill="#fee49d"/>
  <path stroke="null" id="svg_10" d="m21.5,4.875l0,0.25l-0.813,0.239l-2.125,-0.052l-4.438,0.198l-3.125,0.677c0.149,0.213 0.368,0.26 0.625,0.231c0.315,-0.035 0.569,-0.229 0.875,-0.3c0.429,-0.1 0.854,-0.091 1.276,-0.243c0.54,-0.194 1.101,-0.092 1.661,-0.131c1.13,-0.077 2.308,-0.17 3.438,-0.182c1.071,-0.011 1.82,0.144 2.875,-0.188l-0.25,-0.5l0.001,0.001z" fill="#fede84"/>
  <path stroke="null" id="svg_11" d="m21.563,4.875l0.188,0.5l-1.063,0.301l-1.875,-0.113l-4.563,0.193l-1.935,0.394l-0.815,0.266l-0.688,-0.228l0,0.25l4.188,-0.373l3,-0.005l0.875,-0.184l1.625,0.185l1.312,-0.311c0.134,-0.376 0.154,-0.676 -0.25,-0.875l0.001,0z" fill="#ffdb6c"/>
  <path stroke="null" id="svg_12" d="m21.938,5.188c0.033,0.125 0.156,0.301 0.131,0.43c-0.132,0.7 -1.176,0.498 -1.631,0.632l0.063,0.125c-1.211,0.288 -2.753,0.277 -4,0.313c-0.36,0.011 -1.249,-0.069 -1.375,0.312l0.438,0l0,0.188c0.454,0 1.445,-0.116 1.625,0.375c-1.759,0.327 -3.969,-0.23 -5.622,-0.821c-0.211,-0.076 -0.344,-0.242 -0.566,-0.304c0.199,0.405 0.738,0.546 1.125,0.722c0.568,0.258 1.155,0.353 1.748,0.54c0.741,0.234 1.381,0.55 2.19,0.55l-0.188,-0.25c1.344,-0.25 2.85,-0.249 4.188,0l0,0.125l-0.313,0.063l0,0.063c0.692,-0.03 1.313,-0.059 1.938,-0.375l0,-0.063c-0.248,-0.224 -0.25,-0.43 -0.25,-0.75l-0.25,0l0.063,-0.25l-0.063,0l-0.063,0.313l-0.25,-0.25l-0.25,0l0,-0.063c0.528,-0.106 2.388,-1.007 1.313,-1.625l-0.001,0z" fill="#ffcc31"/>
  <path stroke="null" id="svg_13" d="m10.125,5.375c-0.22,0.22 -0.383,0.55 0,0.688l0.303,0.689l-0.053,1.374l-1.057,0.062l-0.469,0.084l-0.099,-0.834l-0.063,0c-0.259,1.373 -0.487,2.835 -0.301,4.25c0.037,0.283 0.194,0.529 0.238,0.813l0.125,0c0.001,-0.806 0.624,-1.056 0.918,-1.75c0.562,-1.325 1.019,-2.612 1.019,-4.063l2.375,0.875l0,0.188l2.313,0.438l0,-0.063c-1.144,-0.144 -2.44,-0.609 -3.494,-1.085c-0.363,-0.164 -0.696,-0.499 -1.068,-0.602c-0.031,-0.464 -0.41,-0.726 -0.688,-1.063l0.001,-0.001z" fill="#f0b51e"/>
  <path stroke="null" id="svg_14" d="m21.938,5.375l-0.125,0.375l-1.188,0.302l-1.812,-0.176l-0.876,0.184l-4.25,0.067l-2.375,0.435c0.201,0.313 1.127,0.459 1.5,0.541c1.37,0.301 2.965,0.794 4.375,0.459c-0.11,-0.506 -1.194,-0.375 -1.625,-0.375l0,-0.188l-0.438,0c0.212,-0.384 1.092,-0.303 1.5,-0.313c0.666,-0.016 1.332,-0.156 2,-0.185c0.604,-0.026 1.294,0.044 1.875,-0.127l-0.063,-0.125c0.446,-0.106 0.973,0.048 1.348,-0.261c0.224,-0.185 0.45,-0.399 0.152,-0.614l0.002,0.001z" fill="#ffd246"/>
  <path stroke="null" id="svg_15" d="m9.813,5.563c-0.267,0.329 -0.599,0.564 -0.821,0.938c-0.71,1.194 -0.679,2.535 -0.679,3.875l0.063,0l0.313,-2.938l0.063,0l0.099,0.872l0.469,-0.099l1.057,-0.086l0.063,-1.625l-0.063,0l-0.063,0.938l-1.313,0.063c0.012,-0.593 0.24,-1.385 0.938,-1.438l0,-0.5l-0.125,0l-0.001,0z" fill="#fcc734"/>
  <path stroke="null" id="svg_16" d="m9.063,6.063l0,0.313l0.063,0l0.625,-0.625l-0.688,0.313l0,-0.001z" fill="#f6d066"/>
  <path stroke="null" id="svg_17" d="m9,7.5l1.313,-0.063l0.063,-1l-0.25,-0.375c-0.848,0.001 -1.119,0.666 -1.125,1.438l-0.001,0z" fill="#fed86c"/>
  <path stroke="null" id="svg_18" d="m8.938,6.375l-0.5,1.375l0.063,0l0.563,-1.375l-0.125,0l-0.001,0z" fill="#f7e3ab"/>
  <path stroke="null" id="svg_19" d="m23.188,6.438l0.66,2.063l0.028,2.937l0.063,0c0.056,-1.288 0.2,-2.418 -0.15,-3.688c-0.132,-0.478 -0.21,-0.965 -0.6,-1.313l-0.001,0.001z" fill="#f8e2ac"/>
  <path stroke="null" id="svg_20" d="m10.688,6.688l-0.688,3.688l0.125,0l0.875,-2.438l1,0.188l0,0.188l1.375,0.188l0,-0.063l-1.688,-0.438c-0.023,-0.138 -0.181,-0.353 -0.149,-0.483c0.082,-0.328 1.281,0.164 1.524,0.17l0,-0.125l-2.375,-0.875l0.001,0z" fill="#ba7d11"/>
  <path stroke="null" id="svg_21" d="m11.688,8c0.937,0.027 1.931,0.588 2.875,0.745c1.327,0.22 2.781,0.07 4.125,0.068c0.653,-0.001 1.295,-0.096 1.938,-0.187c0.277,-0.039 0.669,-0.145 0.931,0.002c0.317,0.178 0.233,0.572 0.285,0.872c0.082,0.479 0.387,1.396 0.785,1.688c-0.188,-0.969 -0.663,-1.891 -0.438,-2.875l-5,0.187l-2.563,-0.312l0,0.063l1.563,0.255l2.875,0.182l0,0.063l-3.688,-0.013l-2.375,-0.549l0,-0.063l1.375,0c-0.57,-0.377 -1.467,-0.482 -2.125,-0.638c-0.172,-0.041 -0.612,-0.232 -0.739,-0.013c-0.078,0.135 0.137,0.39 0.177,0.526l-0.001,-0.001z" fill="#864a03"/>
  <path stroke="null" id="svg_22" d="m8.375,7.75l-0.125,4.125l0.063,0l-0.06,-2.938l0.123,-1.188l-0.001,0.001z" fill="#f8e5b6"/>
  <path stroke="null" id="svg_23" d="m15.875,8c0.286,0.376 0.744,0.374 1.188,0.375c0.959,0.002 2.081,0.041 3,-0.25l0,-0.125c-0.963,-0.232 -1.784,-0.146 -2.75,-0.068c-0.481,0.039 -0.964,-0.044 -1.438,0.068z" fill="#ffd44e"/>
  <path stroke="null" id="svg_24" d="m21.813,8l0,0.063c0.236,0 0.714,-0.09 0.908,0.063c0.281,0.222 -0.421,0.359 -0.533,0.374c0,0.787 0.035,1.439 0.347,2.17c0.227,0.533 0.823,1.01 0.841,1.58l-0.313,0c0.102,0.683 0.249,1.291 0.177,2c-0.092,0.898 -0.545,1.698 -0.052,2.563l-0.75,0.25c0.028,-0.651 0.288,-1.278 0.298,-1.935c0.006,-0.382 -0.202,-0.709 -0.163,-1.127c0.075,-0.786 0.208,-1.811 -0.073,-2.563l-0.063,0c0,1.436 -0.11,2.795 -0.408,4.19c-0.09,0.42 -0.07,1.185 -0.467,1.435l0,0.063c0.577,0 1.243,0.039 1.72,-0.35c0.302,-0.247 0.291,-0.735 0.359,-1.082c0.16,-0.818 0.483,-1.647 0.345,-2.505c-0.049,-0.303 -0.428,-0.363 -0.438,-0.629c-0.025,-0.667 0.264,-1.369 0.264,-2.059l-0.125,0.063c0,-0.53 -0.099,-1.649 -0.438,-2.063c0.528,-0.991 -0.968,-0.557 -1.438,-0.5l0.002,-0.001z" fill="#eaad18"/>
  <path stroke="null" id="svg_25" d="m11,7.938l-0.313,0.875l0.125,0l0.063,-0.375c0.62,0.122 1.193,0.417 1.813,0.533c2.099,0.393 4.229,0.592 6.375,0.592l1.938,0c0.327,-0.001 0.637,-0.074 0.813,0.25l0.063,0l-0.25,-1l-5.563,0.182l-4.063,-0.682l0,-0.188l-1,-0.188l-0.001,0.001z" fill="#e5a817"/>
  <path stroke="null" id="svg_26" d="m13,8.125l0,0.063c1.996,0.653 3.978,0.563 6.063,0.563c-0.496,-0.208 -1.158,-0.104 -1.688,-0.127c-0.783,-0.034 -1.598,-0.134 -2.373,-0.255c-0.655,-0.102 -1.309,-0.447 -2.002,-0.243l0,-0.001z" fill="#753a00"/>
  <path stroke="null" id="svg_27" d="m20.5,8.25l0,0.063l1.938,-0.125l-0.313,0.25l-0.063,0.688l0.125,0l0,-0.625c0.199,-0.016 1.001,-0.332 0.434,-0.428c-0.727,-0.123 -1.416,0.089 -2.121,0.178l0,-0.001z" fill="#bb7c0f"/>
  <path stroke="null" id="svg_28" d="m15.813,8.25l0,0.063c1.655,0.21 3.288,0.147 4.938,-0.063c-0.494,-0.207 -1.347,0.002 -1.875,0.052c-1.046,0.1 -2.024,-0.007 -3.063,-0.052z" fill="#e9b83d"/>
  <path stroke="null" id="svg_29" d="m19.75,8.375l0,0.063c0.67,0 1.331,-0.136 2,-0.125c0.277,0.005 0.58,0.205 0.688,-0.125l-2.688,0.188l0,-0.001z" fill="#a5650a"/>
  <path stroke="null" id="svg_30" d="m8.313,8.438c-0.268,1.443 0.063,2.888 0.188,4.313l0.063,0l-0.249,-2.75l-0.001,-1.563l-0.001,0z" fill="#f6d57f"/>
  <path stroke="null" id="svg_31" d="m10.875,8.438c-0.183,0.595 -0.314,1.181 -0.587,1.75c-0.26,0.541 -0.668,0.947 -0.768,1.563c-0.173,1.066 0.223,2.121 0.029,3.188c-0.102,0.56 0.525,1.709 0.138,2.125l0,0.063l5.063,0c0,-0.37 0.011,-0.637 0.375,-0.813l0,0.25c0.429,0.156 0.772,0.369 1.25,0.299c0.296,-0.043 0.629,-0.418 0.928,-0.318c0.252,0.084 0.179,0.39 0.134,0.581c1.391,0 2.944,0.192 4.313,-0.063l0.684,-3.815l-0.01,-1.935l-0.237,-0.938l-0.188,0c-0.122,-1.214 -1.513,-0.813 -2.438,-0.813c-2.298,0 -4.563,-0.171 -6.813,-0.592c-0.641,-0.12 -1.225,-0.449 -1.875,-0.533l0.002,0.001z" fill="#ffcc30"/>
  <path stroke="null" id="svg_32" d="m13.375,8.5l0,0.063l0.688,0.125l0,-0.125l-0.688,-0.063z" fill="#c1830f"/>
  <path stroke="null" id="svg_33" d="m15.125,8.813l0,0.063c2.106,0.391 4.314,-0.063 6.438,-0.063c-0.415,-0.314 -1.199,-0.063 -1.688,-0.063c-1.579,0.003 -3.166,0.063 -4.75,0.063z" fill="#c6870f"/>
  <path stroke="null" id="svg_34" d="m10.625,8.813l-0.5,1.563l-0.125,0l0.125,-0.75l-0.063,0l-0.615,1.498l-0.679,0.877l0.106,2.437l0.063,0c0,-0.494 0.021,-1.345 0.5,-1.625l0.125,2l0.063,0c0,-1.101 -0.348,-2.368 0.006,-3.432c0.249,-0.749 1.356,-1.706 0.994,-2.568z" fill="#d09111"/>
  <path stroke="null" id="svg_35" d="m22.188,10.563c0.099,0.476 0.363,0.904 0.471,1.375c0.107,0.463 0.034,1.026 0.029,1.5c-0.004,0.322 -0.221,1 0.002,1.274c0.255,0.314 0.526,-0.192 0.55,-0.4c0.082,-0.712 -0.015,-1.379 -0.177,-2.062l0.313,0c-0.006,-0.489 -0.262,-0.53 -0.49,-0.892c-0.136,-0.216 -0.124,-0.425 -0.323,-0.608l0.063,0.438l-0.438,-0.625z" fill="#be8010"/>
  <path stroke="null" id="svg_36" d="m12.375,10.688l0,0.125c0.57,-0.024 1.625,-0.261 1.688,0.563l0.125,0c-0.043,-0.921 -1.145,-0.688 -1.813,-0.688z" fill="#cd9216"/>
  <path stroke="null" id="svg_37" d="m18.438,10.75l0,0.063l1.313,0l0,-0.125l-1.313,0.063l0,-0.001z" fill="#ce9216"/>
  <path stroke="null" id="svg_38" d="m11.75,11.063l0.875,-0.063l0,0.063c-0.275,0.022 -0.481,0.31 -0.113,0.418c0.451,0.132 1.081,0.02 1.551,0.02c-0.003,-0.96 -1.755,-1.007 -2.313,-0.438z" fill="#905004"/>
  <path stroke="null" id="svg_39" d="m20.063,11.563l0,-0.063l-0.25,0l0,-0.438l-0.375,0l0,-0.063l1.375,0.188l0,-0.125c-0.66,-0.164 -1.295,-0.378 -2,-0.295c-0.189,0.022 -0.506,0.011 -0.623,0.19c-0.11,0.166 -0.068,0.46 0.137,0.523c0.48,0.147 1.227,0.06 1.736,0.082l0,0.001z" fill="#935405"/>
  <path stroke="null" id="svg_40" d="m12.375,11.5c-0.054,-0.265 -0.033,-0.391 0.25,-0.438c-0.24,-0.182 -0.932,-0.099 -1.168,0.1c-0.181,0.154 -0.162,0.491 0.112,0.509c0.266,0.017 0.533,-0.158 0.806,-0.172l0,0.001zm7.063,-0.5l0,0.063l0.375,0l0,0.438l1.063,0.25l0,-0.563l-1.438,-0.188z" fill="#793e01"/>
  <path stroke="null" id="svg_41" d="m11.75,11.875l0,-0.125l-0.375,0l0.125,-0.688c-0.534,0.269 -0.27,0.796 0.25,0.813z" fill="#cf9316"/>
  <path stroke="null" id="svg_42" d="m18.063,11.063l0.1,0.436l0.962,0.065l1.625,0.249l0,-0.063c-0.366,-0.03 -0.696,-0.188 -1.063,-0.232c-0.65,-0.078 -1.294,0.208 -1.625,-0.455l0.001,0z" fill="#d29718"/>
  <path stroke="null" id="svg_43" d="m11.375,11.688l0,0.063l0.688,0l0,-0.188l0.313,0l-1,0.125l-0.001,0z" fill="#a96c0b"/>
  <path stroke="null" id="svg_44" d="m22.625,11.813l-0.061,2.687l0.16,0.628l-0.286,1.935l0.75,-0.25c-0.256,-0.652 -0.363,-1.465 0,-2.125c-0.595,0.179 -0.601,-0.256 -0.536,-0.75c0.075,-0.574 0.199,-1.588 -0.026,-2.125l-0.001,0z" fill="#d59712"/>
  <path stroke="null" id="svg_45" d="m10.875,13.938l0.063,0c0.093,-0.307 0.162,-0.692 0.376,-0.939c0.417,-0.482 1.603,-0.712 2.124,-0.311l0.063,0l0.25,-0.125l0.375,0.313l0.438,0.688l-0.438,-1c-0.441,-0.109 -0.78,-0.447 -1.256,-0.491c-0.923,-0.085 -2.226,0.882 -1.994,1.866l-0.001,-0.001z" fill="#d59f21"/>
  <path stroke="null" id="svg_46" d="m17.688,13.5l0.063,0c0.107,-0.233 0.661,-1.108 0.938,-0.75c0.615,-0.302 1.088,-0.268 1.75,-0.188l0.813,0.938l-0.438,-0.938c-0.307,-0.076 -0.575,-0.274 -0.881,-0.349c-0.929,-0.23 -2.212,0.194 -2.244,1.287l-0.001,0z" fill="#d09924"/>
  <path stroke="null" id="svg_47" d="m23.563,12.5l0,0.313l0.313,0l0,-0.063l-0.25,0l-0.063,-0.25z" fill="#edd187"/>
  <path stroke="null" id="svg_48" d="m12,12.875l0.188,-0.063c-0.097,0.343 0.012,0.568 0.375,0.625l0,-0.063c-0.463,-0.208 -0.28,-0.586 0.188,-0.5l-0.438,-0.125l0.063,-0.188l-0.375,0.313l-0.001,0.001z" fill="#76571e"/>
  <path stroke="null" id="svg_49" d="m12.313,12.75l0.625,0.125c-0.068,0.907 -0.614,0.401 -1.063,0.25l0,1.125l1.309,-0.03l0.628,-0.782c-0.028,-0.596 -1.057,-1.302 -1.5,-0.688l0.001,0z" fill="#16130b"/>
  <path stroke="null" id="svg_50" d="m13.5,12.563l0.25,0.563l0.125,-0.188l0.188,0.125l0.063,0l-0.375,-0.5l-0.25,0l-0.001,0z" fill="#e3cc87"/>
  <path stroke="null" id="svg_51" d="m18.563,12.75l0,0.063l0.813,0.063l0,-0.063l-0.438,-0.063l0.125,-0.125l-0.5,0.125z" fill="#6d4f1c"/>
  <path stroke="null" id="svg_52" d="m19.188,12.625c0.068,0.127 0.213,0.279 0.194,0.433c-0.069,0.551 -0.691,0.281 -0.756,-0.12l-0.063,0c-0.245,0.397 -0.411,1.331 0.188,1.5c0.199,-0.298 0.613,-0.05 0.92,-0.16c0.52,-0.186 0.575,-0.992 0.58,-1.465l-1.063,-0.188z" fill="#15130b"/>
  <path stroke="null" id="svg_53" d="m8.813,16.625c0.818,-0.446 0.122,-2.225 -0.025,-2.875c-0.051,-0.225 0.069,-0.786 -0.135,-0.932c-0.155,-0.111 -0.319,0.123 -0.396,0.228c-0.208,0.286 -0.17,0.809 -0.095,1.142c0.081,0.354 0.17,0.707 0.243,1.063c0.096,0.466 0.235,0.926 0.407,1.375l0.001,-0.001z" fill="#e8ab18"/>
  <path stroke="null" id="svg_54" d="m9.25,12.813c-0.155,0.625 -0.5,1.164 -0.188,1.813l0.063,0l0.25,-0.875l0.063,1.063l0.125,0l-0.125,-2l-0.188,0l0,-0.001z" fill="#ba7c0c"/>
  <path stroke="null" id="svg_55" d="m12.063,14.813l0,-0.063c-0.678,-0.668 -0.45,-1.16 -0.25,-1.938c-0.587,0.165 -1.05,1.164 -0.668,1.718c0.165,0.24 0.655,0.276 0.918,0.282l0,0.001z" fill="#ffefb7"/>
  <path stroke="null" id="svg_56" d="m12.438,14.313c-0.165,-0.23 -0.325,-0.147 -0.563,-0.063l0,-1.125l0.188,0.125l0.063,0l0.063,-0.438c-0.734,0.3 -0.741,1.809 0.25,1.5l-0.001,0.001z" fill="#351f03"/>
  <path stroke="null" id="svg_57" d="m12.375,12.813l-0.063,0.375l0.063,0l0,-0.188l0.188,0l0.125,0.188c-0.032,-0.22 -0.096,-0.314 -0.313,-0.375z" fill="#e3d8a1"/>
  <path stroke="null" id="svg_58" d="m18.875,14.938l0,-0.063c-0.895,-0.543 -0.774,-1.253 -0.438,-2.063c-0.556,0.088 -0.961,1.389 -0.668,1.856c0.186,0.296 0.8,0.268 1.105,0.269l0.001,0.001z" fill="#fff6d5"/>
  <path stroke="null" id="svg_59" d="m18.438,13.063l0.125,-0.125l0.063,0l0,0.313l0.063,0l0.125,-0.438l-0.375,0.25l-0.001,0z" fill="#372507"/>
  <path stroke="null" id="svg_60" d="m20.438,12.813c0.109,0.508 0.405,0.987 0.053,1.483c-0.195,0.275 -0.52,0.389 -0.678,0.705c0.423,-0.027 1.079,-0.254 1.3,-0.653c0.26,-0.47 -0.191,-1.4 -0.675,-1.534l0,-0.001z" fill="#ffefb6"/>
  <path stroke="null" id="svg_61" d="m11.313,12.875l-0.188,0.563l0.063,0l0.25,-0.563l-0.125,0z" fill="#e0b958"/>
  <path stroke="null" id="svg_62" d="m12.25,12.875c-0.076,0.339 0.127,0.432 0.438,0.375l0,-0.063l-0.375,0l0.063,-0.313l-0.125,0l-0.001,0.001z" fill="#c6ae6e"/>
  <path stroke="null" id="svg_63" d="m18.375,12.875l0,0.188l0.063,0l0.063,-0.188l-0.125,0l-0.001,0z" fill="#ad9657"/>
  <path stroke="null" id="svg_64" d="m18.75,12.875c0.023,0.306 0.132,0.414 0.438,0.438l0,-0.063c-0.218,-0.066 -0.277,-0.151 -0.313,-0.375l-0.125,0z" fill="#b79c59"/>
  <path stroke="null" id="svg_65" d="m18.875,12.875l0,0.313l0.063,0l0,-0.25l0.25,0l-0.313,-0.063z" fill="#e9d7a4"/>
  <path stroke="null" id="svg_66" d="m20.25,12.875l0,0.063l0.188,0.188l0.063,0l-0.25,-0.25l-0.001,-0.001z" fill="#bca059"/>
  <path stroke="null" id="svg_67" d="m13.875,12.938c0.158,0.797 0.229,1.479 -0.625,1.938l0,0.063l0.813,-0.063l0,-0.063l-0.438,0l0,-0.063c0.553,-0.313 0.5,-0.951 0.5,-1.5l0.063,0l0.188,0.625l0.063,0l-0.375,-0.938l-0.188,0l-0.001,0.001z" fill="#f8e2a1"/>
  <path stroke="null" id="svg_68" d="m18.938,12.938l0,0.25l0.25,0l0,-0.25l-0.25,0z" fill="#ffffd0"/>
  <path stroke="null" id="svg_69" d="m12.375,13l0,0.188l0.188,0l0,-0.188l-0.188,0z" fill="#fffee4"/>
  <path stroke="null" id="svg_70" d="m7.875,13.125l0,0.688l0.188,0l0,-0.688l-0.188,0z" fill="#ded8cc"/>
  <path stroke="null" id="svg_71" d="m13.813,13.125l0,0.313c-0.248,0.082 -0.279,0.255 -0.313,0.5l0.375,0.188l-0.063,-1l0.001,-0.001z" fill="#683201"/>
  <path stroke="null" id="svg_72" d="m17.875,13.125l-0.188,0.75l0.063,0l0.25,-0.75l-0.125,0z" fill="#ddb351"/>
  <path stroke="null" id="svg_73" d="m19.938,14.063l0,0.063l0.188,-0.188c0.459,-0.037 0.375,-0.447 0.375,-0.813c-0.495,0.084 -0.291,0.626 -0.563,0.938z" fill="#6a3300"/>
  <path stroke="null" id="svg_74" d="m20.5,13.188c0,0.346 0.033,0.683 -0.375,0.75c0.011,0.241 0.028,0.425 -0.188,0.563l0,0.063c0.599,-0.062 0.774,-0.87 0.563,-1.375l0,-0.001z" fill="#ad6d07"/>
  <path stroke="null" id="svg_75" d="m13.938,13.25l0,0.188l0.125,0l0,-0.188l-0.125,0z" fill="#d3b367"/>
  <path stroke="null" id="svg_76" d="m13.438,13.938l-0.063,0.313c0.143,0.378 -0.473,0.254 -0.688,0.25c0.375,0.648 1.296,0.097 1.063,-0.563l-0.313,0l0.001,0z" fill="#bc8112"/>
  <path stroke="null" id="svg_77" d="m14.5,14.125c-0.022,0.687 -0.677,0.812 -1.25,0.813l0,-0.063l0.125,0l0,-0.063l-0.313,0l0,0.188l-1.25,-0.125c0.569,0.805 2.801,0.239 2.813,-0.75l-0.125,0z" fill="#fbd956"/>
  <path stroke="null" id="svg_78" d="m19.563,14.313l0,0.375l0.313,0.125l0.063,0l0.25,-0.25l-0.25,0l0,-0.063l0.188,0l0.063,-0.375l-0.625,0.188l-0.002,0z" fill="#d19513"/>
  <path stroke="null" id="svg_79" d="m18.75,14.438l-0.313,-0.125l0.438,0.25l0,-0.188l0.688,0.063l0,-0.125c-0.258,0 -0.746,-0.187 -0.813,0.125z" fill="#532401"/>
  <path stroke="null" id="svg_80" d="m12,14.438c0.192,0.473 0.624,0.375 1.063,0.375l0,-0.063l-0.375,-0.25l0.375,0c-0.339,-0.143 -0.715,-0.17 -1.063,-0.063l0,0.001z" fill="#773c00"/>
  <path stroke="null" id="svg_81" d="m12.5,14.313l0,0.125l0.563,0l0,-0.125l-0.563,0z" fill="#492c06"/>
  <path stroke="null" id="svg_82" d="m18.875,14.375l-0.125,0.25l0.75,0.188l-0.188,-0.313l0.25,0l-0.688,-0.125l0.001,0z" fill="#7b4308"/>
  <path stroke="null" id="svg_83" d="m19.313,14.5l0.188,0.313l-0.438,0l0,0.063c0.284,0 0.633,0.067 0.813,-0.188l-0.313,0l0,-0.188l-0.25,0z" fill="#a37635"/>
  <path stroke="null" id="svg_84" d="m11.875,14.563l0.188,0.188l0,0.063l-0.75,-0.125l0,0.063l1.063,0.25l-0.5,-0.438l-0.001,-0.001z" fill="#ffe68d"/>
  <path stroke="null" id="svg_85" d="m18.563,14.688l0,0.063l0.5,0.125l0,-0.063l-0.5,-0.125z" fill="#dbc17c"/>
  <path stroke="null" id="svg_86" d="m9.125,14.875c0,0.555 0.161,1.36 -0.313,1.75c0.168,0.246 0.341,0.249 0.625,0.25l0,0.188l0.392,-0.145l-0.105,-0.605l-0.162,-1.5l-0.438,0.063l0.001,-0.001z" fill="#d69813"/>
  <path stroke="null" id="svg_87" d="m12.688,14.875l0,0.125l0.375,0l0,-0.125l-0.375,0z" fill="#d3ae4f"/>
  <path stroke="null" id="svg_88" d="m18.063,14.875l0,0.063l1.688,0.188l0,-0.25l-1.688,0l0,-0.001z" fill="#fbd956"/>
  <path stroke="null" id="svg_89" d="m14.938,17.188c-0.22,-0.64 0.405,-0.359 0.75,-0.313l0,0.188c0.515,0 1.414,-0.375 1.688,0.063l0.063,0c0.319,-1.081 -0.798,-0.267 -1.25,-0.254c-0.395,0.012 -0.694,-0.224 -1.063,-0.309l0,-0.25c-0.362,0.064 -0.608,0.785 -0.188,0.875z" fill="#e6aa18"/>
  <path stroke="null" id="svg_90" d="m23.5,16.625c-0.961,1.093 -3.37,0.625 -4.688,0.625c-3.153,0 -6.446,-0.249 -9.565,0.117c-0.905,0.106 -1.933,-0.189 -2.81,0.071l0,0.063l18.125,0c0.34,0 0.921,-0.112 1.201,0.117c0.454,0.372 0.362,0.988 0.362,1.508l0.063,0c0,-0.593 0.128,-1.34 -0.352,-1.793c-0.218,-0.205 -0.56,-0.145 -0.836,-0.145l-2.125,0l0,-0.063c0.301,-0.01 0.674,-0.136 0.625,-0.5z" fill="#ded7c3"/>
  <path stroke="null" id="svg_91" d="m17.375,17.188c-0.16,-0.592 -1.166,-0.125 -1.688,-0.125l0,-0.188c-0.197,-0.046 -0.413,-0.2 -0.622,-0.162c-0.127,0.023 -0.324,0.216 -0.152,0.323c0.548,0.341 1.818,0.07 2.461,0.151l0.001,0.001z" fill="#c2840c"/>
  <path stroke="null" id="svg_92" d="m9.438,17.063c0.245,0.34 0.991,0.188 1.375,0.188l3.938,0l0,-0.063l-3.313,0l-2,-0.125z" fill="#eed58a"/>
  <path stroke="null" id="svg_93" d="m9.563,17.063l0,0.063l1.75,0.063l3.438,0l0,-0.063c-1.667,0 -3.549,0.242 -5.188,-0.063z" fill="#f8ce51"/>
  <path stroke="null" id="svg_94" d="m9.438,17.125c-0.64,0.189 -1.459,0.063 -2.125,0.063c-0.376,0 -0.746,-0.068 -0.938,0.313c0.863,-0.366 2.194,-0.125 3.125,-0.125l-0.063,-0.25l0.001,-0.001z" fill="#e3e3e5"/>
  <path stroke="null" id="svg_95" d="m17.375,17.125l0,0.063l5.25,0l-1.625,-0.063l-3.625,0z" fill="#f7c94e"/>
  <path stroke="null" id="svg_96" d="m17.125,17.188l0,0.063l5.5,0l-1.688,-0.063l-3.813,0l0.001,0z" fill="#eed58a"/>
  <path stroke="null" id="svg_97" d="m6.125,19.438l0.063,0l0.188,-1.875l19.375,0c-0.387,-0.162 -0.957,-0.063 -1.375,-0.063l-16.563,0c-0.391,0 -1.056,-0.128 -1.414,0.038c-0.487,0.226 -0.274,1.463 -0.274,1.9z" fill="#bec0c4"/>
  <path stroke="null" id="svg_98" d="m6.375,17.75l0.313,-0.063c0.023,0.295 0.405,1.078 0.688,1.125l0,0.063l-0.188,0.063l0.375,1l0.438,1.438l-0.25,0.563l0.313,-0.063c-0.014,0.275 -0.098,0.536 -0.036,0.813c0.047,0.209 0.234,0.42 0.246,0.625c0.016,0.265 -0.167,0.728 0.227,0.813c-0.052,0.196 -0.099,0.327 0.125,0.375l-0.063,0.313l0.875,1.188l0,0.063l-0.188,0l0,0.25l0.5,0l0.063,0.313l0.313,-0.063l-0.25,0.313l0,0.063c0.18,0.107 0.181,0.176 0.125,0.375l0.5,-0.063l-0.375,0.313l0,0.438l0.563,0.438l0.75,0l-0.125,0.188c0.673,0.16 1.382,0.013 2.063,0.028c1.283,0.029 2.529,0.036 3.813,0.034c0.64,-0.001 1.7,0.202 2.216,-0.154c0.552,-0.38 1.782,-0.483 1.847,-1.221l0.25,0.188l0.063,0l0,-0.25l-0.375,-0.375l0.375,0.063l0.25,-0.938l-0.375,0.188l-0.438,-0.688c0.447,-0.005 1.083,-0.449 0.5,-0.813l0,-0.063c0.624,-0.353 0.627,-1.02 0.313,-1.563l0.688,-0.75l0.188,-0.375l0,-0.063l-0.313,-0.063l0.313,-0.625c-0.176,-0.189 -0.111,-0.303 0.125,-0.375l0,-0.313l-0.313,0l0.125,-0.813l0.188,0c0,-0.301 -0.3,-0.815 -0.232,-1.033c0.159,-0.512 0.623,-0.491 1.044,-0.557c0.754,-0.118 1.482,-0.223 2.25,-0.223l0.063,2.25c0.26,-0.452 0.438,-2.272 -0.193,-2.531c-0.317,-0.13 -0.842,-0.031 -1.182,-0.031c-1.009,0 -2.013,0.095 -3,0.125c-3.473,0.105 -6.958,0.071 -10.438,0.063c-1.206,-0.003 -2.415,-0.125 -3.625,-0.125c-0.287,0 -1.056,-0.196 -1.125,0.125l-0.004,-0.003z" fill="#8b8e90"/>
  <path stroke="null" id="svg_99" d="m6.75,17.563l0,0.063l10.375,0.125l2.938,-0.062l1.938,-0.063l-1.438,-0.063l-13.813,0z" fill="#abacae"/>
  <path stroke="null" id="svg_100" d="m6.375,24.313c0.317,0.194 0.311,0.66 0.312,1c0.004,0.829 0.063,1.673 0.119,2.5c0.018,0.26 -0.094,0.938 0.168,1.103c0.265,0.167 1.021,0.022 1.338,0.022l3.563,0c4.439,0 8.877,-0.063 13.313,-0.063l-0.063,0.313l0.063,0c0.317,-0.426 0.275,-0.808 0.323,-1.313c0.106,-1.115 0.066,-2.256 0.114,-3.375l0.313,0.063c-0.298,-0.684 -0.116,-1.238 -0.066,-1.94c0.052,-0.725 -0.041,-1.459 0.009,-2.185c0.058,-0.851 0.215,-1.729 -0.006,-2.563c-0.79,0 -1.537,0.101 -2.313,0.223c-0.42,0.066 -0.856,0.049 -1.011,0.557c-0.076,0.248 0.261,0.709 0.261,1.033l-0.188,0l-0.125,0.813l0.313,0l0,0.313c-0.254,0.042 -0.373,0.213 -0.125,0.375l-0.313,0.625l0.313,0.063l0,0.063l-0.188,0.375c-0.481,0.037 -0.411,0.459 -0.688,0.75c0.249,0.62 0.268,1.091 -0.313,1.563l0,0.063c0.453,0.41 -0.016,0.797 -0.5,0.813l0.438,0.688l0.375,-0.188l-0.25,0.938l-0.375,-0.063c0.063,0.235 0.13,0.334 0.375,0.375l0,0.25l-0.063,0l-0.25,-0.188c-0.099,0.657 -0.547,0.512 -1.051,0.722c-0.243,0.101 -0.56,0.331 -0.796,0.466c-0.634,0.364 -1.659,0.179 -2.403,0.188c-1.227,0.015 -2.401,-0.014 -3.625,-0.047c-0.691,-0.018 -1.37,0.112 -2.063,-0.016l0.125,-0.188l-0.75,0c-0.089,-0.251 -0.313,-0.37 -0.563,-0.438l0,-0.438c0.234,-0.027 0.334,-0.074 0.375,-0.313l-0.5,0.063c0.097,-0.204 0.1,-0.3 -0.125,-0.375l0,-0.063l0.25,-0.313l-0.313,0.063l-0.063,-0.313l-0.5,0l0.188,-0.25l0,-0.063l-0.875,-1.188l0.063,-0.313l-0.125,-0.375c-0.351,-0.224 -0.167,-0.543 -0.23,-0.875c-0.098,-0.523 -0.232,-0.82 -0.208,-1.375l-0.313,0.063l0.25,-0.563l-0.438,-1.438c0.044,-0.348 -0.173,-0.724 -0.375,-1l0.188,-0.063l0,-0.063c-0.26,-0.079 -0.643,-0.844 -0.688,-1.125c-0.574,0.094 -0.407,1.176 -0.364,1.625c0.083,0.872 -0.02,1.754 0.063,2.625c0.07,0.737 0.287,1.673 -0.011,2.375l0.004,0.002z" fill="#818386"/>
  <path stroke="null" id="svg_101" d="m16.5,22.125l0,0.063l0.188,0l0,0.313l0.125,0c-0.019,-0.241 -0.068,-0.334 -0.313,-0.375l0,-0.001z" fill="#b3b5b6"/>
  <path stroke="null" id="svg_102" d="m16.125,22.375l0,0.5l-0.313,0l0,0.063l1.063,-0.063l0,-0.125l-0.25,0l0.063,-0.25l-0.5,0.313l0.063,-0.438l-0.125,0l-0.001,0z" fill="#b9bbbd"/>
  <path stroke="null" id="svg_103" d="m15.438,22.813l0,0.063l0.375,0l0,-0.125l-0.375,0.063l0,-0.001z" fill="#b9bbbc"/>
  <path stroke="null" id="svg_104" d="m17.188,24.125c-0.408,-0.212 -0.391,-0.593 -0.063,-0.875c-0.104,-0.331 -0.382,-0.312 -0.688,-0.313l0,0.188c-0.328,-0.011 -0.619,-0.285 -0.937,-0.224c-0.802,0.153 -0.528,1.551 -0.076,1.937c0.251,0.215 0.605,-0.012 0.888,-0.009c0.485,0.006 0.857,-0.146 0.875,-0.704l0.001,0z" fill="#fff"/>
  <path stroke="null" id="svg_105" d="m15.875,22.938l0.563,0.188l0,-0.188c0.308,0.003 0.535,0.022 0.688,0.313c0.227,-0.586 -0.962,-0.335 -1.25,-0.313l-0.001,0z" fill="#ebebec"/>
  <path stroke="null" id="svg_106" d="m25.75,22.875l0,1.438l0.063,0l0.063,-1.438l-0.125,0l-0.001,0z" fill="#b6b8b9"/>
  <path stroke="null" id="svg_107" d="m17.188,24.188c-0.099,0.636 -0.614,0.629 -1.125,0.625l0,0.063l1.125,-0.063l0.125,-0.625l-0.125,0z" fill="#d4d5d6"/>
  <path stroke="null" id="svg_108" d="m6.375,24.313l-0.375,0.25c-0.157,0.586 -0.674,1.122 -0.923,1.688c-0.379,0.862 -0.583,1.875 -0.702,2.813l0.813,0c-0.125,-0.987 0.194,-2.32 0.565,-3.248c0.145,-0.362 0.742,-1.157 0.622,-1.502l0,-0.001z" fill="#2933b0"/>
  <path stroke="null" id="svg_109" d="m6.438,24.313c-0.089,0.449 -0.463,0.957 -0.661,1.386c-0.406,0.877 -0.766,2.413 -0.589,3.364l-0.813,0l0.313,-1.5l-0.063,0l-0.313,1.625l2.75,0l0,-0.063c-0.473,-0.269 -0.375,-0.969 -0.375,-1.438c0,-0.533 -0.174,-1.03 -0.187,-1.563c-0.013,-0.541 0.147,-1.312 -0.063,-1.813l0.001,0.002z" fill="#2c38c9"/>
  <path stroke="null" id="svg_110" d="m6.5,24.313c0,1.177 0.188,2.343 0.188,3.5c0,0.498 -0.095,1.211 0.5,1.375c-0.666,-0.913 -0.449,-2.519 -0.498,-3.625c-0.018,-0.42 0.036,-0.875 -0.19,-1.25z" fill="#525aad"/>
  <path stroke="null" id="svg_111" d="m15.125,24.5l0,0.125l0.125,0l0,-0.125l-0.125,0z" fill="#b9bbbc"/>
  <path stroke="null" id="svg_112" d="m25.625,24.5l-0.188,4.375l0.063,0l0.375,-4.375l-0.25,0z" fill="#535ba4"/>
  <path stroke="null" id="svg_113" d="m25.813,24.563l0.688,4.438l1.313,0.188c-0.055,-1.7 -0.987,-3.244 -1.875,-4.625l-0.125,0l-0.001,-0.001z" fill="#212ca5"/>
  <path stroke="null" id="svg_114" d="m26.313,24.938l0.125,0.313l0.063,0l0,-0.313l-0.188,0z" fill="#989dcc"/>
  <path stroke="null" id="svg_115" d="m25.75,25.313c0,1.243 0.034,2.798 -0.563,3.875l1.688,0l0,-0.063l-0.375,-0.125c0.139,-1.102 -0.233,-2.703 -0.75,-3.688l0,0.001z" fill="#2d39c9"/>
  <path stroke="null" id="svg_116" d="m26.625,25.5l0.313,0.438c-0.05,-0.225 -0.085,-0.363 -0.313,-0.438z" fill="#abadd3"/>
  <path stroke="null" id="svg_117" d="m5.25,25.625l-0.5,1.188l0.063,0l0.438,-1.188l-0.001,0z" fill="#a5a7d0"/>
  <path stroke="null" id="svg_118" d="m26.813,25.875l0.063,0.25l0.063,0l-0.125,-0.25l-0.001,0z" fill="#7277b4"/>
  <path stroke="null" id="svg_119" d="m26.938,26l0.188,0.5l0.063,0l-0.25,-0.5l-0.001,0z" fill="#a6a9d1"/>
  <path stroke="null" id="svg_120" d="m5.063,26.125l0,0z" fill="#7075b7"/>
  <path stroke="null" id="svg_121" d="m27.188,26.313l0.625,2.063l0.063,0c-0.019,-0.653 -0.307,-1.531 -0.688,-2.063z" fill="#dcdeed"/>
  <path stroke="null" id="svg_122" d="m4.938,26.5l-0.188,0.688l0.063,0l0.125,-0.688z" fill="#4b51a5"/>
  <path stroke="null" id="svg_123" d="m27.188,26.688l0,0z" fill="#8d91c2"/>
  <path stroke="null" id="svg_124" d="m4.688,26.875l-0.25,1.063l0.063,0c0.155,-0.295 0.314,-0.738 0.188,-1.063l-0.001,0z" fill="#8085bc"/>
  <path stroke="null" id="svg_125" d="m27.313,27.25l0.5,1.938l-0.313,0l0,0.063l0.375,0c0,-0.549 -0.036,-1.682 -0.563,-2l0.001,-0.001z" fill="#767ab3"/>
  <path stroke="null" id="svg_126" d="m4.438,27.313l-0.375,2l23.75,0l0,-0.063l-23.688,0l0.5,-1.938l-0.188,0l0.001,0.001z" fill="#d7d7d9"/>
  <path stroke="null" id="svg_127" d="m27.688,28.063l0,0z" fill="#acaecf"/>
  <path stroke="null" id="svg_128" d="m4.25,28.438l-0.125,0.813l0.188,0l-0.063,-0.813z" fill="#a9acd0"/>
  <path stroke="null" id="svg_129" d="m27.875,28.563l0.063,0.688l0.063,0l-0.125,-0.688l-0.001,0z" fill="#c3c5dd"/>
  <path stroke="null" id="svg_130" d="m27.875,28.75l0,0.5l0.063,0l-0.063,-0.5z" fill="#9497c2"/>
  <path stroke="null" id="svg_131" d="m7.063,28.938c0.187,0.339 0.595,0.25 0.938,0.25l16.188,0c0.366,0 0.902,0.135 1,-0.313l-18.125,0.063l-0.001,0z" fill="#65656a"/>
  <path stroke="null" id="svg_132" d="m4.313,29.188l0,0.063l2.813,0c-0.731,-0.307 -2.016,-0.063 -2.813,-0.063z" fill="#646cd4"/>
  <path stroke="null" id="svg_133" d="m7.125,29.188l0,0.063l17.938,0l-1.625,-0.063l-16.313,0z" fill="#818286"/>
  <path stroke="null" id="svg_134" d="m25.063,29.188l0,0.063l2.438,0c-0.642,-0.269 -1.739,-0.063 -2.438,-0.063z" fill="#666ed8"/>
 </g>
</svg>